G04 #@! TF.GenerationSoftware,KiCad,Pcbnew,8.0.1*
G04 #@! TF.CreationDate,2024-03-22T12:16:06+01:00*
G04 #@! TF.ProjectId,RTL8812AU_module,52544c38-3831-4324-9155-5f6d6f64756c,rev?*
G04 #@! TF.SameCoordinates,Original*
G04 #@! TF.FileFunction,Copper,L2,Bot*
G04 #@! TF.FilePolarity,Positive*
%FSLAX46Y46*%
G04 Gerber Fmt 4.6, Leading zero omitted, Abs format (unit mm)*
G04 Created by KiCad (PCBNEW 8.0.1) date 2024-03-22 12:16:06*
%MOMM*%
%LPD*%
G01*
G04 APERTURE LIST*
G04 Aperture macros list*
%AMRoundRect*
0 Rectangle with rounded corners*
0 $1 Rounding radius*
0 $2 $3 $4 $5 $6 $7 $8 $9 X,Y pos of 4 corners*
0 Add a 4 corners polygon primitive as box body*
4,1,4,$2,$3,$4,$5,$6,$7,$8,$9,$2,$3,0*
0 Add four circle primitives for the rounded corners*
1,1,$1+$1,$2,$3*
1,1,$1+$1,$4,$5*
1,1,$1+$1,$6,$7*
1,1,$1+$1,$8,$9*
0 Add four rect primitives between the rounded corners*
20,1,$1+$1,$2,$3,$4,$5,0*
20,1,$1+$1,$4,$5,$6,$7,0*
20,1,$1+$1,$6,$7,$8,$9,0*
20,1,$1+$1,$8,$9,$2,$3,0*%
G04 Aperture macros list end*
G04 #@! TA.AperFunction,SMDPad,CuDef*
%ADD10RoundRect,0.250000X0.537500X0.425000X-0.537500X0.425000X-0.537500X-0.425000X0.537500X-0.425000X0*%
G04 #@! TD*
G04 #@! TA.AperFunction,SMDPad,CuDef*
%ADD11RoundRect,0.375000X-0.625000X-0.375000X0.625000X-0.375000X0.625000X0.375000X-0.625000X0.375000X0*%
G04 #@! TD*
G04 #@! TA.AperFunction,SMDPad,CuDef*
%ADD12RoundRect,0.500000X-0.500000X-1.400000X0.500000X-1.400000X0.500000X1.400000X-0.500000X1.400000X0*%
G04 #@! TD*
G04 #@! TA.AperFunction,ComponentPad*
%ADD13R,1.700000X1.700000*%
G04 #@! TD*
G04 #@! TA.AperFunction,ComponentPad*
%ADD14O,1.700000X1.700000*%
G04 #@! TD*
G04 #@! TA.AperFunction,SMDPad,CuDef*
%ADD15RoundRect,0.250000X0.337500X0.475000X-0.337500X0.475000X-0.337500X-0.475000X0.337500X-0.475000X0*%
G04 #@! TD*
G04 #@! TA.AperFunction,ViaPad*
%ADD16C,1.200000*%
G04 #@! TD*
G04 #@! TA.AperFunction,Conductor*
%ADD17C,0.800000*%
G04 #@! TD*
G04 APERTURE END LIST*
D10*
G04 #@! TO.P,C4,1*
G04 #@! TO.N,Net-(J1-Pin_1)*
X125587500Y-79200000D03*
G04 #@! TO.P,C4,2*
G04 #@! TO.N,GND*
X122712500Y-79200000D03*
G04 #@! TD*
G04 #@! TO.P,C3,1*
G04 #@! TO.N,Net-(U1-H2_3v3)*
X125587500Y-85700000D03*
G04 #@! TO.P,C3,2*
G04 #@! TO.N,GND*
X122712500Y-85700000D03*
G04 #@! TD*
D11*
G04 #@! TO.P,U2,1,GND*
G04 #@! TO.N,GND*
X129500000Y-83000000D03*
G04 #@! TO.P,U2,2,VO*
G04 #@! TO.N,Net-(U1-H2_3v3)*
X129500000Y-80700000D03*
D12*
X135800000Y-80700000D03*
D11*
G04 #@! TO.P,U2,3,VI*
G04 #@! TO.N,Net-(J1-Pin_1)*
X129500000Y-78400000D03*
G04 #@! TD*
D13*
G04 #@! TO.P,J1,1,Pin_1*
G04 #@! TO.N,Net-(J1-Pin_1)*
X119000000Y-85500000D03*
D14*
G04 #@! TO.P,J1,2,Pin_2*
G04 #@! TO.N,/DN*
X119000000Y-82960000D03*
G04 #@! TO.P,J1,3,Pin_3*
G04 #@! TO.N,/DP*
X119000000Y-80420000D03*
G04 #@! TO.P,J1,4,Pin_4*
G04 #@! TO.N,GND*
X119000000Y-77880000D03*
G04 #@! TD*
D15*
G04 #@! TO.P,C2,1*
G04 #@! TO.N,Net-(J1-Pin_1)*
X125187500Y-75700000D03*
G04 #@! TO.P,C2,2*
G04 #@! TO.N,GND*
X123112500Y-75700000D03*
G04 #@! TD*
G04 #@! TO.P,C1,1*
G04 #@! TO.N,Net-(U1-H2_3v3)*
X125187500Y-82200000D03*
G04 #@! TO.P,C1,2*
G04 #@! TO.N,GND*
X123112500Y-82200000D03*
G04 #@! TD*
D16*
G04 #@! TO.N,GND*
X123000000Y-72750000D03*
G04 #@! TO.N,Net-(U1-H2_3v3)*
X121500000Y-83750000D03*
G04 #@! TO.N,Net-(J1-Pin_1)*
X119250000Y-88000000D03*
G04 #@! TD*
D17*
G04 #@! TO.N,Net-(J1-Pin_1)*
X126750000Y-75000000D02*
X126050000Y-75700000D01*
X135750000Y-75000000D02*
X126750000Y-75000000D01*
X138250000Y-77500000D02*
X135750000Y-75000000D01*
X138250000Y-86000000D02*
X138250000Y-77500000D01*
X126050000Y-75700000D02*
X125187500Y-75700000D01*
X135750000Y-88500000D02*
X138250000Y-86000000D01*
X119250000Y-88000000D02*
X119750000Y-88500000D01*
X119750000Y-88500000D02*
X135750000Y-88500000D01*
G04 #@! TO.N,Net-(U1-H2_3v3)*
X125587500Y-86662500D02*
X125587500Y-85700000D01*
X121500000Y-87250000D02*
X125000000Y-87250000D01*
X121000000Y-86750000D02*
X121500000Y-87250000D01*
X121500000Y-83750000D02*
X121000000Y-84250000D01*
X121000000Y-84250000D02*
X121000000Y-86750000D01*
X125000000Y-87250000D02*
X125587500Y-86662500D01*
G04 #@! TO.N,GND*
X123112500Y-72862500D02*
X123000000Y-72750000D01*
X123112500Y-75700000D02*
X123112500Y-72862500D01*
X122962500Y-83950000D02*
X122712500Y-83700000D01*
X129500000Y-83000000D02*
X128550000Y-83950000D01*
X128550000Y-83950000D02*
X122962500Y-83950000D01*
G04 #@! TO.N,Net-(U1-H2_3v3)*
X135800000Y-84050000D02*
X135800000Y-80700000D01*
X134150000Y-85700000D02*
X135800000Y-84050000D01*
X125587500Y-85700000D02*
X134150000Y-85700000D01*
G04 #@! TO.N,GND*
X122712500Y-85700000D02*
X122712500Y-83700000D01*
X122712500Y-83700000D02*
X122712500Y-82600000D01*
G04 #@! TO.N,Net-(U1-H2_3v3)*
X129500000Y-80700000D02*
X135800000Y-80700000D01*
X128150000Y-80700000D02*
X129500000Y-80700000D01*
X126650000Y-82200000D02*
X128150000Y-80700000D01*
X125187500Y-82200000D02*
X126650000Y-82200000D01*
G04 #@! TO.N,GND*
X123112500Y-79600000D02*
X122712500Y-79200000D01*
X123112500Y-82200000D02*
X123112500Y-79600000D01*
X122712500Y-82600000D02*
X123112500Y-82200000D01*
X123112500Y-78800000D02*
X122712500Y-79200000D01*
X123112500Y-75700000D02*
X123112500Y-78800000D01*
G04 #@! TO.N,Net-(J1-Pin_1)*
X125187500Y-78800000D02*
X125587500Y-79200000D01*
X125187500Y-75700000D02*
X125187500Y-78800000D01*
X127950000Y-78400000D02*
X129500000Y-78400000D01*
X127150000Y-79200000D02*
X127950000Y-78400000D01*
X125587500Y-79200000D02*
X127150000Y-79200000D01*
G04 #@! TD*
G04 #@! TA.AperFunction,Conductor*
G04 #@! TO.N,GND*
G36*
X152942539Y-71770185D02*
G01*
X152988294Y-71822989D01*
X152999500Y-71874500D01*
X152999500Y-88875500D01*
X152979815Y-88942539D01*
X152927011Y-88988294D01*
X152875500Y-88999500D01*
X136823362Y-88999500D01*
X136756323Y-88979815D01*
X136710568Y-88927011D01*
X136700624Y-88857853D01*
X136729649Y-88794297D01*
X136735681Y-88787819D01*
X138949462Y-86574038D01*
X138949464Y-86574036D01*
X138998599Y-86500500D01*
X139048013Y-86426547D01*
X139081953Y-86344606D01*
X139115895Y-86262666D01*
X139150500Y-86088692D01*
X139150500Y-85911308D01*
X139150500Y-77411309D01*
X139124972Y-77282970D01*
X139124972Y-77282969D01*
X139124972Y-77282967D01*
X139115896Y-77237341D01*
X139115895Y-77237334D01*
X139093279Y-77182736D01*
X139079534Y-77149552D01*
X139079512Y-77149501D01*
X139079512Y-77149500D01*
X139048013Y-77073453D01*
X139018575Y-77029397D01*
X138988936Y-76985039D01*
X138988936Y-76985038D01*
X138988933Y-76985036D01*
X138949466Y-76925966D01*
X136324035Y-74300535D01*
X136324030Y-74300531D01*
X136264961Y-74261064D01*
X136264960Y-74261063D01*
X136176544Y-74201985D01*
X136176542Y-74201984D01*
X136094607Y-74168046D01*
X136094606Y-74168046D01*
X136012666Y-74134105D01*
X136012658Y-74134103D01*
X135838696Y-74099500D01*
X135838692Y-74099500D01*
X135838691Y-74099500D01*
X126661309Y-74099500D01*
X126661306Y-74099500D01*
X126487341Y-74134103D01*
X126487332Y-74134106D01*
X126323459Y-74201983D01*
X126323446Y-74201990D01*
X126175967Y-74300533D01*
X126175965Y-74300535D01*
X126175965Y-74300536D01*
X126175964Y-74300537D01*
X126008018Y-74468481D01*
X125967503Y-74508997D01*
X125906180Y-74542481D01*
X125840818Y-74539021D01*
X125677797Y-74485001D01*
X125677795Y-74485000D01*
X125575010Y-74474500D01*
X124799998Y-74474500D01*
X124799980Y-74474501D01*
X124697203Y-74485000D01*
X124697200Y-74485001D01*
X124530668Y-74540185D01*
X124530663Y-74540187D01*
X124381342Y-74632289D01*
X124257288Y-74756343D01*
X124257283Y-74756349D01*
X124255241Y-74759661D01*
X124253247Y-74761453D01*
X124252807Y-74762011D01*
X124252711Y-74761935D01*
X124203291Y-74806383D01*
X124134328Y-74817602D01*
X124070247Y-74789755D01*
X124044168Y-74759656D01*
X124042319Y-74756659D01*
X124042316Y-74756655D01*
X123918345Y-74632684D01*
X123769124Y-74540643D01*
X123769119Y-74540641D01*
X123602697Y-74485494D01*
X123602690Y-74485493D01*
X123499986Y-74475000D01*
X123362500Y-74475000D01*
X123362500Y-76924999D01*
X123499972Y-76924999D01*
X123499986Y-76924998D01*
X123602697Y-76914505D01*
X123769119Y-76859358D01*
X123769124Y-76859356D01*
X123918345Y-76767315D01*
X124042318Y-76643342D01*
X124044165Y-76640348D01*
X124045969Y-76638724D01*
X124046798Y-76637677D01*
X124046976Y-76637818D01*
X124096110Y-76593621D01*
X124165073Y-76582396D01*
X124229156Y-76610236D01*
X124255245Y-76640343D01*
X124257289Y-76643658D01*
X124260266Y-76647422D01*
X124286407Y-76712217D01*
X124287000Y-76724333D01*
X124287000Y-78888693D01*
X124297117Y-78939554D01*
X124299500Y-78963746D01*
X124299500Y-79675001D01*
X124299501Y-79675019D01*
X124310000Y-79777796D01*
X124310001Y-79777799D01*
X124363397Y-79938936D01*
X124365186Y-79944334D01*
X124457288Y-80093656D01*
X124581344Y-80217712D01*
X124730666Y-80309814D01*
X124897203Y-80364999D01*
X124999991Y-80375500D01*
X126175008Y-80375499D01*
X126277797Y-80364999D01*
X126444334Y-80309814D01*
X126593656Y-80217712D01*
X126674549Y-80136819D01*
X126735872Y-80103334D01*
X126762230Y-80100500D01*
X127176638Y-80100500D01*
X127243677Y-80120185D01*
X127289432Y-80172989D01*
X127299376Y-80242147D01*
X127270351Y-80305703D01*
X127264319Y-80312181D01*
X126313319Y-81263181D01*
X126251996Y-81296666D01*
X126225638Y-81299500D01*
X126211868Y-81299500D01*
X126144829Y-81279815D01*
X126123653Y-81260616D01*
X126122819Y-81261451D01*
X125993657Y-81132289D01*
X125993656Y-81132288D01*
X125844334Y-81040186D01*
X125677797Y-80985001D01*
X125677795Y-80985000D01*
X125575010Y-80974500D01*
X124799998Y-80974500D01*
X124799980Y-80974501D01*
X124697203Y-80985000D01*
X124697200Y-80985001D01*
X124530668Y-81040185D01*
X124530663Y-81040187D01*
X124381342Y-81132289D01*
X124257288Y-81256343D01*
X124257283Y-81256349D01*
X124255241Y-81259661D01*
X124253247Y-81261453D01*
X124252807Y-81262011D01*
X124252711Y-81261935D01*
X124203291Y-81306383D01*
X124134328Y-81317602D01*
X124070247Y-81289755D01*
X124044168Y-81259656D01*
X124042319Y-81256659D01*
X124042316Y-81256655D01*
X123918345Y-81132684D01*
X123769124Y-81040643D01*
X123769119Y-81040641D01*
X123602697Y-80985494D01*
X123602690Y-80985493D01*
X123499986Y-80975000D01*
X123362500Y-80975000D01*
X123362500Y-83424999D01*
X123499972Y-83424999D01*
X123499986Y-83424998D01*
X123602697Y-83414505D01*
X123769119Y-83359358D01*
X123769124Y-83359356D01*
X123918345Y-83267315D01*
X124042318Y-83143342D01*
X124044165Y-83140348D01*
X124045969Y-83138724D01*
X124046798Y-83137677D01*
X124046976Y-83137818D01*
X124096110Y-83093621D01*
X124165073Y-83082396D01*
X124229156Y-83110236D01*
X124255243Y-83140341D01*
X124257288Y-83143656D01*
X124381344Y-83267712D01*
X124530666Y-83359814D01*
X124697203Y-83414999D01*
X124799991Y-83425500D01*
X125575008Y-83425499D01*
X125575016Y-83425498D01*
X125575019Y-83425498D01*
X125631302Y-83419748D01*
X125677797Y-83414999D01*
X125844334Y-83359814D01*
X125993656Y-83267712D01*
X126011368Y-83250000D01*
X128000000Y-83250000D01*
X128000000Y-83451096D01*
X128002897Y-83493824D01*
X128048831Y-83678523D01*
X128133390Y-83849022D01*
X128133392Y-83849025D01*
X128252632Y-83997366D01*
X128252633Y-83997367D01*
X128400974Y-84116607D01*
X128400977Y-84116609D01*
X128571476Y-84201168D01*
X128756175Y-84247102D01*
X128798903Y-84250000D01*
X129250000Y-84250000D01*
X129250000Y-83250000D01*
X129750000Y-83250000D01*
X129750000Y-84250000D01*
X130201097Y-84250000D01*
X130243824Y-84247102D01*
X130428523Y-84201168D01*
X130599022Y-84116609D01*
X130599025Y-84116607D01*
X130747366Y-83997367D01*
X130747367Y-83997366D01*
X130866607Y-83849025D01*
X130866609Y-83849022D01*
X130951168Y-83678523D01*
X130997102Y-83493824D01*
X131000000Y-83451096D01*
X131000000Y-83250000D01*
X129750000Y-83250000D01*
X129250000Y-83250000D01*
X128000000Y-83250000D01*
X126011368Y-83250000D01*
X126117712Y-83143656D01*
X126117712Y-83143655D01*
X126122819Y-83138549D01*
X126124705Y-83140435D01*
X126171625Y-83107212D01*
X126211868Y-83100500D01*
X126738693Y-83100500D01*
X126738694Y-83100499D01*
X126912666Y-83065895D01*
X126994606Y-83031953D01*
X127076547Y-82998013D01*
X127076549Y-82998011D01*
X127076552Y-82998010D01*
X127164955Y-82938939D01*
X127164955Y-82938938D01*
X127164959Y-82938936D01*
X127224036Y-82899464D01*
X127814727Y-82308772D01*
X127876049Y-82275288D01*
X127945740Y-82280272D01*
X128001674Y-82322143D01*
X128026091Y-82387608D01*
X128022742Y-82426380D01*
X128002897Y-82506173D01*
X128000000Y-82548903D01*
X128000000Y-82750000D01*
X131000000Y-82750000D01*
X131000000Y-82548903D01*
X130997102Y-82506175D01*
X130951168Y-82321476D01*
X130866609Y-82150977D01*
X130866607Y-82150974D01*
X130747367Y-82002633D01*
X130747366Y-82002632D01*
X130678115Y-81946967D01*
X130638196Y-81889624D01*
X130635616Y-81819802D01*
X130671194Y-81759669D01*
X130678089Y-81753694D01*
X130747722Y-81697722D01*
X130788644Y-81646813D01*
X130845987Y-81606894D01*
X130885291Y-81600500D01*
X134175501Y-81600500D01*
X134242540Y-81620185D01*
X134288295Y-81672989D01*
X134299501Y-81724500D01*
X134299501Y-82158034D01*
X134310113Y-82277415D01*
X134366089Y-82473045D01*
X134366090Y-82473048D01*
X134366091Y-82473049D01*
X134460302Y-82653407D01*
X134460304Y-82653409D01*
X134588890Y-82811109D01*
X134697246Y-82899461D01*
X134746593Y-82939698D01*
X134785458Y-82959999D01*
X134832911Y-82984786D01*
X134883219Y-83033273D01*
X134899500Y-83094695D01*
X134899500Y-83625638D01*
X134879815Y-83692677D01*
X134863181Y-83713319D01*
X133813319Y-84763181D01*
X133751996Y-84796666D01*
X133725638Y-84799500D01*
X126762230Y-84799500D01*
X126695191Y-84779815D01*
X126674549Y-84763181D01*
X126593657Y-84682289D01*
X126593656Y-84682288D01*
X126444334Y-84590186D01*
X126277797Y-84535001D01*
X126277795Y-84535000D01*
X126175010Y-84524500D01*
X124999998Y-84524500D01*
X124999981Y-84524501D01*
X124897203Y-84535000D01*
X124897200Y-84535001D01*
X124730668Y-84590185D01*
X124730663Y-84590187D01*
X124581342Y-84682289D01*
X124457289Y-84806342D01*
X124365187Y-84955663D01*
X124365185Y-84955668D01*
X124365115Y-84955880D01*
X124310001Y-85122203D01*
X124310001Y-85122204D01*
X124310000Y-85122204D01*
X124299500Y-85224983D01*
X124299500Y-86175001D01*
X124299502Y-86175022D01*
X124303371Y-86212900D01*
X124290601Y-86281593D01*
X124242719Y-86332476D01*
X124180013Y-86349500D01*
X124119484Y-86349500D01*
X124052445Y-86329815D01*
X124006690Y-86277011D01*
X123996126Y-86212897D01*
X123999999Y-86174985D01*
X124000000Y-86174973D01*
X124000000Y-85950000D01*
X122586500Y-85950000D01*
X122519461Y-85930315D01*
X122473706Y-85877511D01*
X122462500Y-85826000D01*
X122462500Y-84525000D01*
X122962500Y-84525000D01*
X122962500Y-85450000D01*
X123999999Y-85450000D01*
X123999999Y-85225028D01*
X123999998Y-85225013D01*
X123989505Y-85122302D01*
X123934358Y-84955880D01*
X123934356Y-84955875D01*
X123842315Y-84806654D01*
X123718345Y-84682684D01*
X123569124Y-84590643D01*
X123569119Y-84590641D01*
X123402697Y-84535494D01*
X123402690Y-84535493D01*
X123299986Y-84525000D01*
X122962500Y-84525000D01*
X122462500Y-84525000D01*
X122442677Y-84505177D01*
X122409192Y-84443854D01*
X122414176Y-84374162D01*
X122431406Y-84342767D01*
X122439673Y-84331821D01*
X122530582Y-84149250D01*
X122586397Y-83953083D01*
X122605215Y-83750000D01*
X122587577Y-83559657D01*
X122600992Y-83491090D01*
X122649349Y-83440658D01*
X122717295Y-83424375D01*
X122723654Y-83424860D01*
X122725023Y-83424999D01*
X122862499Y-83424999D01*
X122862500Y-83424998D01*
X122862500Y-82450000D01*
X122025001Y-82450000D01*
X122025001Y-82592172D01*
X122005316Y-82659211D01*
X121952512Y-82704966D01*
X121883354Y-82714910D01*
X121856208Y-82707799D01*
X121802460Y-82686977D01*
X121802457Y-82686976D01*
X121802456Y-82686976D01*
X121601976Y-82649500D01*
X121398024Y-82649500D01*
X121197544Y-82686976D01*
X121197541Y-82686976D01*
X121197541Y-82686977D01*
X121007364Y-82760651D01*
X121007357Y-82760655D01*
X120833960Y-82868017D01*
X120833958Y-82868019D01*
X120683237Y-83005418D01*
X120568339Y-83157569D01*
X120512230Y-83199205D01*
X120442518Y-83203896D01*
X120381336Y-83170154D01*
X120348109Y-83108691D01*
X120345857Y-83072034D01*
X120355659Y-82960000D01*
X120355659Y-82959999D01*
X120350362Y-82899461D01*
X120335063Y-82724592D01*
X120273903Y-82496337D01*
X120174035Y-82282171D01*
X120172706Y-82280272D01*
X120038494Y-82088597D01*
X119899896Y-81950000D01*
X122025000Y-81950000D01*
X122862500Y-81950000D01*
X122862500Y-80975000D01*
X122725027Y-80975000D01*
X122725012Y-80975001D01*
X122622302Y-80985494D01*
X122455880Y-81040641D01*
X122455875Y-81040643D01*
X122306654Y-81132684D01*
X122182684Y-81256654D01*
X122090643Y-81405875D01*
X122090641Y-81405880D01*
X122035494Y-81572302D01*
X122035493Y-81572309D01*
X122025000Y-81675013D01*
X122025000Y-81950000D01*
X119899896Y-81950000D01*
X119871402Y-81921506D01*
X119871396Y-81921501D01*
X119685842Y-81791575D01*
X119642217Y-81736998D01*
X119635023Y-81667500D01*
X119666546Y-81605145D01*
X119685842Y-81588425D01*
X119709009Y-81572203D01*
X119871401Y-81458495D01*
X120038495Y-81291401D01*
X120174035Y-81097830D01*
X120273903Y-80883663D01*
X120335063Y-80655408D01*
X120355659Y-80420000D01*
X120335063Y-80184592D01*
X120273903Y-79956337D01*
X120174035Y-79742171D01*
X120127008Y-79675008D01*
X120038494Y-79548597D01*
X119939896Y-79450000D01*
X121425001Y-79450000D01*
X121425001Y-79674986D01*
X121435494Y-79777697D01*
X121490641Y-79944119D01*
X121490643Y-79944124D01*
X121582684Y-80093345D01*
X121706654Y-80217315D01*
X121855875Y-80309356D01*
X121855880Y-80309358D01*
X122022302Y-80364505D01*
X122022309Y-80364506D01*
X122125019Y-80374999D01*
X122462499Y-80374999D01*
X122462500Y-80374998D01*
X122462500Y-79450000D01*
X122962500Y-79450000D01*
X122962500Y-80374999D01*
X123299972Y-80374999D01*
X123299986Y-80374998D01*
X123402697Y-80364505D01*
X123569119Y-80309358D01*
X123569124Y-80309356D01*
X123718345Y-80217315D01*
X123842315Y-80093345D01*
X123934356Y-79944124D01*
X123934358Y-79944119D01*
X123989505Y-79777697D01*
X123989506Y-79777690D01*
X123999999Y-79674986D01*
X124000000Y-79674973D01*
X124000000Y-79450000D01*
X122962500Y-79450000D01*
X122462500Y-79450000D01*
X121425001Y-79450000D01*
X119939896Y-79450000D01*
X119871402Y-79381506D01*
X119871401Y-79381505D01*
X119685405Y-79251269D01*
X119641781Y-79196692D01*
X119634588Y-79127193D01*
X119666110Y-79064839D01*
X119685405Y-79048119D01*
X119825532Y-78950000D01*
X121425000Y-78950000D01*
X122462500Y-78950000D01*
X122462500Y-78025000D01*
X122962500Y-78025000D01*
X122962500Y-78950000D01*
X123999999Y-78950000D01*
X123999999Y-78725028D01*
X123999998Y-78725013D01*
X123989505Y-78622302D01*
X123934358Y-78455880D01*
X123934356Y-78455875D01*
X123842315Y-78306654D01*
X123718345Y-78182684D01*
X123569124Y-78090643D01*
X123569119Y-78090641D01*
X123402697Y-78035494D01*
X123402690Y-78035493D01*
X123299986Y-78025000D01*
X122962500Y-78025000D01*
X122462500Y-78025000D01*
X122125028Y-78025000D01*
X122125012Y-78025001D01*
X122022302Y-78035494D01*
X121855880Y-78090641D01*
X121855875Y-78090643D01*
X121706654Y-78182684D01*
X121582684Y-78306654D01*
X121490643Y-78455875D01*
X121490641Y-78455880D01*
X121435494Y-78622302D01*
X121435493Y-78622309D01*
X121425000Y-78725013D01*
X121425000Y-78950000D01*
X119825532Y-78950000D01*
X119871082Y-78918105D01*
X120038105Y-78751082D01*
X120173600Y-78557578D01*
X120273429Y-78343492D01*
X120273432Y-78343486D01*
X120330636Y-78130000D01*
X119433012Y-78130000D01*
X119465925Y-78072993D01*
X119500000Y-77945826D01*
X119500000Y-77814174D01*
X119465925Y-77687007D01*
X119433012Y-77630000D01*
X120330636Y-77630000D01*
X120330635Y-77629999D01*
X120273432Y-77416513D01*
X120273429Y-77416507D01*
X120173600Y-77202422D01*
X120173599Y-77202420D01*
X120038113Y-77008926D01*
X120038108Y-77008920D01*
X119871082Y-76841894D01*
X119677578Y-76706399D01*
X119463492Y-76606570D01*
X119463486Y-76606567D01*
X119250000Y-76549364D01*
X119250000Y-77446988D01*
X119192993Y-77414075D01*
X119065826Y-77380000D01*
X118934174Y-77380000D01*
X118807007Y-77414075D01*
X118750000Y-77446988D01*
X118750000Y-76549364D01*
X118749999Y-76549364D01*
X118536513Y-76606567D01*
X118536507Y-76606570D01*
X118322422Y-76706399D01*
X118322420Y-76706400D01*
X118128926Y-76841886D01*
X118128920Y-76841891D01*
X117961891Y-77008920D01*
X117961886Y-77008926D01*
X117826400Y-77202420D01*
X117826399Y-77202422D01*
X117726570Y-77416507D01*
X117726567Y-77416513D01*
X117669364Y-77629999D01*
X117669364Y-77630000D01*
X118566988Y-77630000D01*
X118534075Y-77687007D01*
X118500000Y-77814174D01*
X118500000Y-77945826D01*
X118534075Y-78072993D01*
X118566988Y-78130000D01*
X117669364Y-78130000D01*
X117726567Y-78343486D01*
X117726570Y-78343492D01*
X117826399Y-78557578D01*
X117961894Y-78751082D01*
X118128917Y-78918105D01*
X118314595Y-79048119D01*
X118358219Y-79102696D01*
X118365412Y-79172195D01*
X118333890Y-79234549D01*
X118314595Y-79251269D01*
X118128594Y-79381508D01*
X117961505Y-79548597D01*
X117825965Y-79742169D01*
X117825964Y-79742171D01*
X117726098Y-79956335D01*
X117726094Y-79956344D01*
X117664938Y-80184586D01*
X117664936Y-80184596D01*
X117644341Y-80419999D01*
X117644341Y-80420000D01*
X117664936Y-80655403D01*
X117664938Y-80655413D01*
X117726094Y-80883655D01*
X117726096Y-80883659D01*
X117726097Y-80883663D01*
X117773582Y-80985494D01*
X117825965Y-81097830D01*
X117825967Y-81097834D01*
X117934281Y-81252521D01*
X117960352Y-81289755D01*
X117961501Y-81291395D01*
X117961506Y-81291402D01*
X118128597Y-81458493D01*
X118128603Y-81458498D01*
X118314158Y-81588425D01*
X118357783Y-81643002D01*
X118364977Y-81712500D01*
X118333454Y-81774855D01*
X118314158Y-81791575D01*
X118128597Y-81921505D01*
X117961505Y-82088597D01*
X117825965Y-82282169D01*
X117825964Y-82282171D01*
X117726098Y-82496335D01*
X117726094Y-82496344D01*
X117664938Y-82724586D01*
X117664936Y-82724596D01*
X117644341Y-82959999D01*
X117644341Y-82960000D01*
X117664936Y-83195403D01*
X117664938Y-83195413D01*
X117726094Y-83423655D01*
X117726096Y-83423659D01*
X117726097Y-83423663D01*
X117789514Y-83559660D01*
X117825965Y-83637830D01*
X117825967Y-83637834D01*
X117961501Y-83831395D01*
X117961506Y-83831402D01*
X118083430Y-83953326D01*
X118116915Y-84014649D01*
X118111931Y-84084341D01*
X118070059Y-84140274D01*
X118039083Y-84157189D01*
X117907669Y-84206203D01*
X117907664Y-84206206D01*
X117792455Y-84292452D01*
X117792452Y-84292455D01*
X117706206Y-84407664D01*
X117706202Y-84407671D01*
X117655908Y-84542517D01*
X117649501Y-84602116D01*
X117649500Y-84602135D01*
X117649500Y-86397870D01*
X117649501Y-86397876D01*
X117655908Y-86457483D01*
X117706202Y-86592328D01*
X117706206Y-86592335D01*
X117792452Y-86707544D01*
X117792455Y-86707547D01*
X117907664Y-86793793D01*
X117907671Y-86793797D01*
X118042517Y-86844091D01*
X118042516Y-86844091D01*
X118049444Y-86844835D01*
X118102127Y-86850500D01*
X118580204Y-86850499D01*
X118647241Y-86870183D01*
X118692996Y-86922987D01*
X118702940Y-86992146D01*
X118673915Y-87055702D01*
X118645481Y-87079925D01*
X118583959Y-87118018D01*
X118583958Y-87118019D01*
X118433237Y-87255418D01*
X118310327Y-87418178D01*
X118219422Y-87600739D01*
X118219417Y-87600752D01*
X118163602Y-87796917D01*
X118144785Y-87999999D01*
X118144785Y-88000000D01*
X118163602Y-88203082D01*
X118219417Y-88399247D01*
X118219422Y-88399260D01*
X118310327Y-88581821D01*
X118433237Y-88744581D01*
X118476328Y-88783863D01*
X118512610Y-88843574D01*
X118510849Y-88913422D01*
X118471606Y-88971229D01*
X118407339Y-88998644D01*
X118392790Y-88999500D01*
X117124500Y-88999500D01*
X117057461Y-88979815D01*
X117011706Y-88927011D01*
X117000500Y-88875500D01*
X117000500Y-75950000D01*
X122025001Y-75950000D01*
X122025001Y-76224986D01*
X122035494Y-76327697D01*
X122090641Y-76494119D01*
X122090643Y-76494124D01*
X122182684Y-76643345D01*
X122306654Y-76767315D01*
X122455875Y-76859356D01*
X122455880Y-76859358D01*
X122622302Y-76914505D01*
X122622309Y-76914506D01*
X122725019Y-76924999D01*
X122862499Y-76924999D01*
X122862500Y-76924998D01*
X122862500Y-75950000D01*
X122025001Y-75950000D01*
X117000500Y-75950000D01*
X117000500Y-75450000D01*
X122025000Y-75450000D01*
X122862500Y-75450000D01*
X122862500Y-74475000D01*
X122725027Y-74475000D01*
X122725012Y-74475001D01*
X122622302Y-74485494D01*
X122455880Y-74540641D01*
X122455875Y-74540643D01*
X122306654Y-74632684D01*
X122182684Y-74756654D01*
X122090643Y-74905875D01*
X122090641Y-74905880D01*
X122035494Y-75072302D01*
X122035493Y-75072309D01*
X122025000Y-75175013D01*
X122025000Y-75450000D01*
X117000500Y-75450000D01*
X117000500Y-71874500D01*
X117020185Y-71807461D01*
X117072989Y-71761706D01*
X117124500Y-71750500D01*
X152875500Y-71750500D01*
X152942539Y-71770185D01*
G37*
G04 #@! TD.AperFunction*
G04 #@! TD*
M02*
